<svg id="a9915c8e-35b4-463f-bc35-5a1fdc05b59e" data-name="Layer 1" xmlns="http://www.w3.org/2000/svg" xmlns:xlink="http://www.w3.org/1999/xlink" viewBox="0 0 1332.65 1081"><defs><style>.b6d89291-9e6f-4568-91d2-2b73a565d4dd{fill:#333;stroke:#1d1d1b;stroke-linejoin:round;}.a5c94941-1edb-4272-ac0e-201dce4a0c5d{fill:url(#f7965338-64ad-4127-b670-52cdb99dab78);}.fc8cd3da-5599-4da2-a467-f6ae9b809072{fill:url(#a2e090b7-1957-4911-85be-8cf08a24a605);}.b59d0681-a3af-427d-8c76-43588f74d1e7{fill:url(#e84dda26-6f02-4c47-af93-297c12fea501);}.fcb2c4ef-eb84-4a43-865d-3b7b54396f65{fill:url(#ff901e3b-81f6-4f74-aa60-8f18016708fa);}.a12737ad-ce90-4bdd-bf54-769f0caaf4bd{fill:url(#b2396b55-3570-4aa2-b9e2-509360e63021);}.a3063a50-50c9-450d-84a5-74da6f97f485{fill:url(#aa798875-40f9-44dd-959c-77d446cf44aa);}.a87982b3-8198-47df-ad41-88de425b033c{fill:url(#aaf35cc6-5ef3-4bd2-bade-9316aacf23f0);}.a8d464eb-5c10-449a-a711-6a07d64c9215{fill:url(#ae663eaf-9da6-4d14-85be-1fcfa5c47be8);}</style><linearGradient id="f7965338-64ad-4127-b670-52cdb99dab78" x1="146.17" y1="540" x2="734.99" y2="540" gradientUnits="userSpaceOnUse"><stop offset="0" stop-color="#31f48e"/><stop offset="0.16" stop-color="#2ff193"/><stop offset="0.36" stop-color="#2aeaa3"/><stop offset="0.58" stop-color="#22debc"/><stop offset="0.82" stop-color="#16cddf"/><stop offset="1" stop-color="#0bbeff"/></linearGradient><linearGradient id="a2e090b7-1957-4911-85be-8cf08a24a605" x1="682.61" y1="252.76" x2="756.05" y2="252.76" gradientUnits="userSpaceOnUse"><stop offset="0" stop-color="#009ad4" stop-opacity="0.8"/><stop offset="0.1" stop-color="#00abc6" stop-opacity="0.85"/><stop offset="0.25" stop-color="#00c0b6" stop-opacity="0.9"/><stop offset="0.4" stop-color="#00d0a8" stop-opacity="0.95"/><stop offset="0.57" stop-color="#00dc9f" stop-opacity="0.98"/><stop offset="0.76" stop-color="#00e39a" stop-opacity="0.99"/><stop offset="1" stop-color="#00e598"/></linearGradient><linearGradient id="e84dda26-6f02-4c47-af93-297c12fea501" x1="375.21" y1="827.31" x2="448.66" y2="827.31" gradientUnits="userSpaceOnUse"><stop offset="0" stop-color="#009ad4"/><stop offset="0.07" stop-color="#00a1ce"/><stop offset="0.47" stop-color="#00c6b1"/><stop offset="0.79" stop-color="#00dd9f"/><stop offset="1" stop-color="#00e598"/></linearGradient><linearGradient id="ff901e3b-81f6-4f74-aa60-8f18016708fa" x1="103.58" y1="540.5" x2="177.03" y2="540.5" gradientUnits="userSpaceOnUse"><stop offset="0" stop-color="#009ad4"/><stop offset="0.05" stop-color="#00aac7"/><stop offset="0.13" stop-color="#00c0b6"/><stop offset="0.23" stop-color="#00d1a8"/><stop offset="0.35" stop-color="#00dc9f"/><stop offset="0.52" stop-color="#00e399"/><stop offset="1" stop-color="#00e598"/></linearGradient><linearGradient id="b2396b55-3570-4aa2-b9e2-509360e63021" x1="671.87" y1="550.73" x2="766.79" y2="550.73" gradientUnits="userSpaceOnUse"><stop offset="0" stop-color="#009ad4"/><stop offset="0.55" stop-color="#00c1b4"/><stop offset="1" stop-color="#00e598"/></linearGradient><linearGradient id="aa798875-40f9-44dd-959c-77d446cf44aa" x1="784.12" y1="553.48" x2="816.5" y2="553.48" gradientUnits="userSpaceOnUse"><stop offset="0" stop-color="#00e598"/><stop offset="0.95" stop-color="#009ed1"/><stop offset="1" stop-color="#009ad4"/></linearGradient><linearGradient id="aaf35cc6-5ef3-4bd2-bade-9316aacf23f0" x1="818.02" y1="554.77" x2="878.22" y2="554.77" xlink:href="#aa798875-40f9-44dd-959c-77d446cf44aa"/><linearGradient id="ae663eaf-9da6-4d14-85be-1fcfa5c47be8" x1="879.74" y1="553.48" x2="958.22" y2="553.48" xlink:href="#aa798875-40f9-44dd-959c-77d446cf44aa"/></defs><text x="0.5" y="0.5"/><circle class="b6d89291-9e6f-4568-91d2-2b73a565d4dd" cx="540.5" cy="540.5" r="540"/><path class="a5c94941-1edb-4272-ac0e-201dce4a0c5d" d="M447.14,329.18V463A48.3,48.3,0,0,0,488,510.64a49.52,49.52,0,0,0,7.46.58h192A47.61,47.61,0,0,1,735,558.84V809a47.63,47.63,0,0,1-47.62,47.62H437.19A47.63,47.63,0,0,1,389.57,809v-10H629.18a48.26,48.26,0,0,0,48.24-48.27V617a48.24,48.24,0,0,0-48.24-48.25H163.51a17.34,17.34,0,0,1-17.34-17.34V528a17.34,17.34,0,0,1,17.34-17.34H389.57V271a47.63,47.63,0,0,1,47.62-47.62H687.37A47.63,47.63,0,0,1,735,271v9.95H495.41A48.27,48.27,0,0,0,447.14,329.18Z" transform="translate(0.5 0.5)"/><circle class="fc8cd3da-5599-4da2-a467-f6ae9b809072" cx="719.33" cy="252.76" r="36.72"/><circle class="b59d0681-a3af-427d-8c76-43588f74d1e7" cx="411.94" cy="827.31" r="36.72"/><circle class="fcb2c4ef-eb84-4a43-865d-3b7b54396f65" cx="140.31" cy="540.5" r="36.72"/><ellipse class="a12737ad-ce90-4bdd-bf54-769f0caaf4bd" cx="719.33" cy="550.73" rx="47.46" ry="40.39"/><path class="a3063a50-50c9-450d-84a5-74da6f97f485" d="M801.88,609.53c.2-.32.41-.65.6-1,18.85-31.29,19.3-77.91-2.38-107.43-11.54-15.72-16,0-16,0a89.88,89.88,0,0,1,11.49,24.46A107.14,107.14,0,0,1,800,553a110.16,110.16,0,0,1-2.56,27.69,95.37,95.37,0,0,1-9.53,25.4c-.5.9-2.27,2.67-1.86,3.71.2.5,1.1,1,1.51,1.35a9.18,9.18,0,0,0,7.22,1.53c5.66-1.16,7.47-3.76,7.47-3.76" transform="translate(0.5 0.5)"/><path class="a87982b3-8198-47df-ad41-88de425b033c" d="M848.37,662c.4-.62.8-1.24,1.19-1.86,37.06-59,39.59-147.92-.7-205-21.45-30.39-30.48-.57-30.48-.57q3.68,5.64,6.85,11.59t5.91,12.21c1.82,4.18,3.48,8.44,5,12.74s2.84,8.75,4,13.19,2.21,9,3.08,13.54,1.6,9.17,2.16,13.79,1,9.3,1.22,14,.35,9.36.3,14-.27,9.36-.63,14-.88,9.3-1.55,13.93-1.49,9.18-2.47,13.73-2.1,9-3.39,13.45-2.7,8.77-4.29,13.08-3.32,8.47-5.21,12.6-3.91,8.12-6.11,12.06c-1.43,2.55-2.94,5.07-4.5,7.55a9.28,9.28,0,0,0-.67,1c-.29.63.44,1.14.83,1.54a18.16,18.16,0,0,0,7.42,4.62,17.45,17.45,0,0,0,8.46.47c10.85-2,14.38-6.92,14.38-6.92" transform="translate(0.5 0.5)"/><path class="a8d464eb-5c10-449a-a711-6a07d64c9215" d="M922.79,689.33c.49-.79,1-1.59,1.46-2.39,45.68-75.83,46.77-188.85-5.77-260.4-28-38.09-38.74,0-38.74,0,50.37,74.23,51.42,187,4.31,262.79,0,0,7.89,10.37,21.62,7.54s18.09-9.13,18.09-9.13" transform="translate(0.5 0.5)"/></svg>