<?xml version="1.0" standalone="no"?>
<!DOCTYPE svg PUBLIC "-//W3C//DTD SVG 20010904//EN"
 "http://www.w3.org/TR/2001/REC-SVG-20010904/DTD/svg10.dtd">
<svg version="1.0" xmlns="http://www.w3.org/2000/svg"
 width="512.000000pt" height="512.000000pt" viewBox="0 0 512.000000 512.000000"
 preserveAspectRatio="xMidYMid meet">

<g transform="translate(0.000000,512.000000) scale(0.100000,-0.100000)"
fill="#000000" stroke="none">
<path d="M2370 5114 c-19 -2 -78 -9 -130 -15 -282 -32 -627 -140 -880 -275
-111 -60 -313 -195 -420 -281 -108 -87 -276 -255 -363 -363 -306 -380 -490
-807 -558 -1300 -17 -123 -18 -516 -1 -635 84 -592 328 -1088 733 -1494 406
-406 901 -648 1494 -733 119 -17 512 -16 635 1 580 80 1087 330 1490 733 464
465 723 1063 747 1723 16 466 -95 927 -319 1326 -34 61 -70 112 -84 120 -58
30 -124 4 -144 -57 -11 -34 -10 -40 29 -112 227 -419 315 -752 315 -1192 0
-238 -14 -362 -63 -566 -78 -319 -236 -643 -438 -897 -58 -73 -271 -297 -282
-297 -4 0 -15 33 -25 73 -66 258 -215 516 -416 717 -229 229 -508 377 -832
442 -162 32 -434 32 -595 0 -548 -110 -990 -477 -1191 -987 -22 -55 -48 -133
-58 -172 -10 -40 -21 -73 -24 -73 -12 0 -227 226 -282 296 -205 260 -359 575
-438 896 -51 208 -64 322 -64 563 -1 312 40 551 141 820 304 815 1011 1387
1883 1522 156 24 498 24 661 0 387 -57 735 -197 1047 -422 69 -50 103 -67 128
-68 70 -2 120 69 94 133 -7 17 -40 51 -79 79 -350 258 -746 418 -1191 481 -78
11 -459 21 -520 14z m467 -3283 c558 -114 994 -552 1096 -1103 l14 -77 -56
-39 c-285 -198 -631 -332 -1001 -388 -141 -22 -490 -25 -625 -6 -384 55 -704
174 -1011 379 l-81 54 14 77 c100 538 527 977 1064 1096 182 41 406 43 586 7z"/>
<path d="M4351 4286 c-87 -48 -50 -186 49 -186 51 0 100 49 100 99 0 75 -83
124 -149 87z"/>
<path d="M2380 4041 c-338 -74 -600 -322 -692 -656 -17 -65 -22 -107 -22 -225
0 -118 5 -160 22 -225 113 -413 490 -691 907 -672 344 16 633 209 781 520 60
127 78 213 78 377 0 118 -5 160 -22 225 -88 318 -333 563 -647 646 -115 30
-293 35 -405 10z m375 -211 c122 -38 202 -86 295 -180 143 -143 205 -290 205
-490 0 -200 -62 -347 -205 -490 -143 -143 -290 -205 -490 -205 -200 0 -347 62
-490 205 -142 141 -204 290 -205 485 0 134 13 192 72 315 38 79 59 107 132
181 73 73 102 94 181 132 52 25 120 50 150 56 30 6 64 13 75 15 46 11 213 -4
280 -24z"/>
</g>
</svg>
